Coordinates
version=1
nRows=19
nColumns=24
inDegrees=yes

Units are S.I. units (second, meters, Newtons, ...)
Angles are in degrees.

endheader
time	pelvis_tilt	pelvis_list	pelvis_rotation	pelvis_tx	pelvis_ty	pelvis_tz	hip_flexion_r	hip_adduction_r	hip_rotation_r	knee_angle_r	ankle_angle_r	subtalar_angle_r	mtp_angle_r	hip_flexion_l	hip_adduction_l	hip_rotation_l	knee_angle_l	ankle_angle_l	subtalar_angle_l	mtp_angle_l	lumbar_extension	lumbar_bending	lumbar_rotation
      5.76000000	      2.17990758	     -0.96045923	      0.30587196	     -1.80137836	      0.94237794	      0.47728622	     -2.75133625	      6.01967719	      2.31649445	     -7.54639687	     16.86532512	     -2.85147105	      0.00000000	     22.08295856	     -0.22881815	      3.16222207	    -42.84706061	      1.53762380	    -14.34967673	      0.00000000	    -24.36087348	     -1.46163446	     -6.98959607
      5.77000000	      2.04075734	     -1.09142961	      0.02593501	     -1.79107899	      0.94151516	      0.47752106	     -3.44469887	      6.12862471	      2.54959154	     -7.27092381	     17.31727634	     -2.63760041	      0.00000000	     22.09831962	     -0.45667687	      3.32003018	    -39.03300627	      1.83926938	    -13.92237028	      0.00000000	    -24.26957955	     -1.41307165	     -6.64218646
      5.78000000	      1.89428992	     -1.27463480	     -0.26245277	     -1.78061436	      0.94047226	      0.47768964	     -4.14738897	      6.27901599	      2.77316425	     -6.98546113	     17.77015771	     -2.38142323	      0.00000000	     21.96156004	     -0.74413896	      3.55250152	    -34.96013789	      2.12897898	    -13.29557422	      0.00000000	    -24.12904046	     -1.29347740	     -6.26665615
      5.79000000	      1.70132564	     -1.50560106	     -0.57587305	     -1.77000435	      0.93919144	      0.47782590	     -4.79785276	      6.47022784	      3.05240951	     -6.73730828	     18.24014459	     -2.14311484	      0.00000000	     21.72210326	     -1.08832747	      3.88033310	    -30.65504941	      2.38682170	    -12.54797427	      0.00000000	    -23.89500063	     -1.11720507	     -5.87064554
      5.80000000	      1.56545963	     -1.79549574	     -0.90622800	     -1.75923262	      0.93780937	      0.47792732	     -5.52837424	      6.70827659	      3.28965523	     -6.47712410	     18.67395707	     -1.85586665	      0.00000000	     21.29545208	     -1.52084580	      4.24139686	    -26.18580245	      2.59162266	    -11.50724235	      0.00000000	    -23.70196442	     -0.87101572	     -5.39262842
      5.81000000	      1.40792430	     -2.12744580	     -1.28242597	     -1.74831573	      0.93622226	      0.47802653	     -6.23239515	      6.97730026	      3.60202005	     -6.26104903	     19.12462919	     -1.58421387	      0.00000000	     20.77845506	     -2.02319416	      4.65265733	    -21.60389710	      2.74131881	    -10.42434877	      0.00000000	    -23.45937531	     -0.57938018	     -4.87829540
      5.82000000	      1.25691270	     -2.51826285	     -1.71107840	     -1.73726094	      0.93447348	      0.47813302	     -6.94428787	      7.29181286	      3.99517006	     -6.08355846	     19.58429412	     -1.31459024	      0.00000000	     20.17140678	     -2.61929931	      5.09995069	    -17.00337425	      2.84385003	     -9.34976877	      0.00000000	    -23.21040842	     -0.22737733	     -4.29385386
      5.83000000	      1.20248238	     -2.93513049	     -2.17834631	     -1.72606356	      0.93271438	      0.47826814	     -7.76332572	      7.61126983	      4.35057729	     -5.93163996	     19.96572573	     -1.02517474	      0.00000000	     19.41133439	     -3.28672409	      5.42113222	    -12.48894014	      2.79012016	     -8.18267391	      0.00000000	    -23.07199908	      0.13455403	     -3.65994253
      5.84000000	      1.16019391	     -3.40964357	     -2.70103641	     -1.71475622	      0.93084327	      0.47841753	     -8.59119808	      7.96821871	      4.77051818	     -5.83063627	     20.35519496	     -0.72542203	      0.00000000	     18.64214650	     -4.04215077	      5.57750464	     -8.23811223	      2.72582379	     -7.09017204	      0.00000000	    -22.95245966	      0.55091927	     -2.95342658
      5.85000000	      1.15526469	     -3.90516771	     -3.26160228	     -1.70337498	      0.92896391	      0.47856847	     -9.44801122	      8.32130954	      5.20682374	     -5.78445395	     20.71505800	     -0.41688609	      0.00000000	     17.89230276	     -4.82321154	      5.40205740	     -4.40214971	      2.66138028	     -6.01587989	      0.00000000	    -22.89716183	      0.97481730	     -2.20954071
      5.86000000	      1.15920144	     -4.39324430	     -3.82470933	     -1.69196805	      0.92713094	      0.47867342	    -10.29075622	      8.64632003	      5.62155624	     -5.80257778	     21.00599867	     -0.11816316	      0.00000000	     17.33753524	     -5.55078217	      4.32918352	     -1.27045042	      2.99702800	     -4.15920934	      0.00000000	    -22.87824255	      1.39006294	     -1.47278407
      5.87000000	      1.18800129	     -4.80326368	     -4.38678419	     -1.68052078	      0.92542768	      0.47866671	    -11.12169156	      8.86179577	      5.99022011	     -5.89820470	     21.27484234	      0.22251537	      0.00000000	     16.85038760	     -6.11043166	      2.98202622	      1.30561170	      3.24378394	     -2.63431136	      0.00000000	    -22.90740828	      1.71989188	     -0.76505409
      5.88000000	      1.18087051	     -5.11260334	     -4.92844752	     -1.66904643	      0.92382206	      0.47853187	    -11.86020197	      8.95717777	      6.32163336	     -6.08588217	     21.56231594	      0.55791004	      0.00000000	     16.54515666	     -6.47487642	      1.32961342	      3.21664716	      3.48580561	     -1.31651735	      0.00000000	    -22.90250100	      1.95061157	     -0.12520639
      5.89000000	      1.23718161	     -5.34565849	     -5.38740626	     -1.65749838	      0.92242049	      0.47820047	    -12.63588624	      8.95923982	      6.59543842	     -6.31262596	     21.70354705	      0.83993201	      0.00000000	     16.21500054	     -6.68785623	      0.11144865	      4.62504701	      3.47625507	     -1.06117624	      0.00000000	    -22.97594428	      2.11785743	      0.41101841
      5.90000000	      1.22934669	     -5.48843024	     -5.78271346	     -1.64593882	      0.92113757	      0.47772752	    -13.26431664	      8.87448282	      6.80534844	     -6.65792686	     21.84249532	      1.15508334	      0.00000000	     16.22063491	     -6.73125733	     -1.64945378	      5.13303423	      3.88953375	     -0.35186129	      0.00000000	    -22.96911023	      2.21534394	      0.85263912
      5.91000000	      1.20899452	     -5.53855395	     -6.08669912	     -1.63420383	      0.91995886	      0.47710981	    -13.85154325	      8.70350745	      7.01561473	     -7.03568700	     21.79839421	      1.32534071	      0.00000000	     16.25973176	     -6.66796678	     -2.69763466	      5.16913528	      3.94387301	     -0.90220632	      0.00000000	    -22.90297261	      2.23249473	      1.18745179
      5.92000000	      1.33394974	     -5.47304398	     -6.26417435	     -1.62233255	      0.91912158	      0.47633072	    -14.54414285	      8.41343644	      7.12445772	     -7.46762956	     21.73003647	      1.51944052	      0.00000000	     16.36124533	     -6.42568611	     -4.14497810	      4.43924591	      4.34858586	     -0.77633651	      0.00000000	    -22.98105116	      2.13240411	      1.34390576
      5.93000000	      1.33537046	     -5.38069847	     -6.39697125	     -1.61025818	      0.91823088	      0.47547212	    -15.04514070	      8.12217107	      7.26986551	     -8.02179784	     21.53288390	      1.61507227	      0.00000000	     16.59083169	     -6.18951353	     -4.92663200	      3.33935106	      4.41843336	     -1.48211215	      0.00000000	    -22.86370522	      2.03799002	      1.42858973
      5.94000000	      1.40103944	     -5.22743708	     -6.44951686	     -1.59789814	      0.91752127	      0.47453424	    -15.59217756	      7.77615224	      7.38012002	     -8.61509549	     21.25429306	      1.69514742	      0.00000000	     16.77905424	     -5.88217880	     -5.50443620	      1.90286975	      4.40922275	     -2.15068344	      0.00000000	    -22.75695347	      1.87651242	      1.44512742
